<?xml version="1.0" encoding="UTF-8"?>
<svg width="32px" height="36px" viewBox="0 0 32 36" version="1.1" xmlns="http://www.w3.org/2000/svg" xmlns:xlink="http://www.w3.org/1999/xlink">
    <!-- Generator: Sketch 51.2 (57519) - http://www.bohemiancoding.com/sketch -->
    <title>Fill 1 Copy</title>
    <desc>Created with Sketch.</desc>
    <defs></defs>
    <g id="Page-1" stroke="none" stroke-width="1" fill="none" fill-rule="evenodd">
        <g id="Itinéraire-#7" transform="translate(-699.000000, -168.000000)" fill="#222533">
            <path fill="#d0021b" d="M725.805677,172.615074 C722.959109,169.768506 719.034479,168 714.698005,168 C710.361532,168 706.412676,169.768506 703.578221,172.615074 C698.26059,177.920592 697.485354,186.423957 701.724923,192.565276 C703.469203,195.169583 705.976606,197.204576 708.932191,198.367429 C709.174452,198.440108 709.392487,198.585464 709.56207,198.755047 L714.698005,204 L719.821828,198.755047 C719.991411,198.60969 720.197333,198.476447 720.403254,198.379542 C723.370953,197.228802 725.926808,195.193809 727.683201,192.565276 C731.910657,186.423957 731.111195,177.920592 725.805677,172.615074 M720.039863,178.320323 C718.671088,176.927322 716.793564,176.079408 714.698005,176.079408 C712.602447,176.079408 710.724923,176.927322 709.356148,178.320323 C707.987373,179.676985 707.139459,181.566622 707.139459,183.66218 C707.139459,185.733513 707.987373,187.635262 709.356148,189.016151 C710.724923,190.372813 712.602447,191.220727 714.698005,191.220727 C716.793564,191.220727 718.671088,190.372813 720.039863,189.016151 C721.408638,187.635262 722.256552,185.733513 722.256552,183.66218 C722.256552,181.566622 721.408638,179.676985 720.039863,178.320323 M714.698005,174.092867 C717.338651,174.092867 719.724923,175.170929 721.45709,176.903096 C723.189257,178.623149 724.267319,181.021534 724.267319,183.66218 C724.267319,186.290713 723.189257,188.689098 721.45709,190.421265 C719.724923,192.153432 717.338651,193.231494 714.698005,193.231494 C712.057359,193.231494 709.671088,192.153432 707.926808,190.421265 C706.206754,188.689098 705.128692,186.290713 705.128692,183.66218 C705.128692,181.021534 706.206754,178.623149 707.926808,176.903096 C709.671088,175.170929 712.057359,174.092867 714.698005,174.092867" id="Fill-1-Copy"></path>
        </g>
    </g>
</svg>
