<svg xmlns="http://www.w3.org/2000/svg" width="595.28" height="841.89" viewBox="0 0 595.28 841.89"><path fill="#131313" d="M417.406 145.48h-35l36.397 39.496v18.801H343.83v-22.012h36.393l-36.393-39.497v-18.827h73.575v22.039h.001zm-88.434 0h-35l36.398 39.496v18.801h-74.973v-22.012h36.396l-36.396-39.497v-18.827h73.575v22.039zm-87.57.895h-37.768v34.469h37.768v22.934h-64.611v-80.336h64.611v22.933z"/><path fill="#1973B7" d="M125.325 670.898L86.946 240.452h421.701L470.23 670.829l-172.692 47.877-172.213-47.808z"/><path fill="#35A9DC" d="M297.799 682.111l139.541-38.687 32.83-367.777H297.799v406.464z"/><path fill="#FFF" d="M297.797 431.597h69.858l4.824-54.061h-74.682v-52.794h132.379l-1.266 14.164-12.976 145.481H297.797v-52.79z"/><path fill="#EBEBEB" d="M298.114 568.701l-.231.064-58.796-15.877-3.759-42.103h-52.993l7.395 82.89 108.141 30.021.244-.069v-54.926h-.001z"/><path fill="#FFF" d="M363.169 482.152l-6.358 70.7-58.88 15.895v54.925l108.228-29.996.793-8.919 9.184-102.604h-52.967v-.001z"/><path fill="#EBEBEB" d="M297.98 324.742v52.794H170.461l-1.059-11.866-2.405-26.764-1.262-14.164H297.98zm-.183 106.861v52.793h-58.051l-1.058-11.865-2.408-26.765-1.261-14.163h62.778z"/></svg>
