<svg xmlns="http://www.w3.org/2000/svg" width="595.28" height="841.89" viewBox="0 0 595.28 841.89"><path fill="#E54E27" d="M125.153 670.773l-38.38-430.481h421.735l-38.42 430.414-172.706 47.88-172.229-47.813z"/><path fill="#EC662B" d="M297.64 681.988l139.553-38.689 32.834-367.809H297.64v406.498z"/><path fill="#EBEBEB" d="M297.64 435.149h-69.864l-4.825-54.064h74.689v-52.798H165.251l1.264 14.165 12.977 145.494H297.64v-52.797zm0 137.12l-.231.062-58.8-15.877-3.759-42.107h-53l7.396 82.898 108.15 30.023.243-.068v-54.931z"/><path fill="#010202" d="M126.011 123.306h26.831v26.508h24.543v-26.508h26.832v80.274h-26.831v-26.881h-24.544v26.881h-26.831v-80.274zm113.489 26.62h-23.62v-26.62h74.084v26.62h-23.631v53.654h-26.832l-.001-53.654zm62.223-26.62H329.7l17.211 28.206 17.191-28.206h27.988v80.274h-26.721v-39.789l-18.459 28.542h-.463l-18.473-28.542v39.789h-26.252v-80.274zm103.718 0h26.84v53.74h37.73v26.534h-64.57v-80.274z"/><path fill="#FFF" d="M297.458 435.149v52.797h65.013l-6.127 68.474-58.886 15.894v54.928l108.238-29.997.793-8.92 12.406-138.997 1.289-14.178H297.458zm0-106.862v52.798h127.531l1.059-11.867 2.406-26.766 1.262-14.165H297.458z"/></svg>
