<svg xmlns="http://www.w3.org/2000/svg" width="595.28" height="841.89" viewBox="0 0 595.28 841.89"><path fill="#E6A429" d="M506.969 241.863H88.721l39.191 425.172 169.93 48.18 169.871-48.18 39.256-425.172z"/><path fill="#F1BF23" d="M297.842 276.495v402.711l137.606-39.009 33.511-363.702H297.842z"/><path fill="#FFF" d="M407.322 328.668H195.667l-14.71 159.194.311-.995h179.789l-5.867 67.339-57.348 16.532-58.228-16.78-3.495-40.754h-52.858l7.555 81.441 107.025 30.388 107.029-30.388 14.724-159.819H228.82l2.435-53.3h132.416l1.944 30.504h53.332l-11.625-83.362z"/><path fill="#EBEBEB" d="M297.842 328.668H195.667l-14.71 159.194.311-.995h116.574v-52.041h-61.66l2.43-53.295h59.23v-52.863zM236.12 513.204h-52.858l7.555 81.441 107.025 30.325v-54.232l-58.228-16.78-3.494-40.754z"/><path fill="#010202" d="M257.144 179.144h-37.193v26.71h63.845v-79.38h-26.652v52.67zm118.593-52.265h-64.874v27.799c8.671 8.682 13.204 12.836 25.761 25.391-7.342 0-25.761.026-25.761.026v25.359h64.874V180.09l-25.911-25.412h25.911v-27.799z"/></svg>
