<svg xmlns="http://www.w3.org/2000/svg" version="1" width="60" height="60" viewBox="0 0 60 60"><path d="M15 60c3.525-3.238 5.66-6.321 7.21-9.389 1.148-2.275 1.889-4.531 2.864-6.805.326-.76.764-1.515 1.14-2.285.75-1.539 1.946-3.165 4.527-4.77 2.522-1.57 5.196-2.512 7.81-3.073 4.302-.923 9.223-1 13.464.417 3.467 1.159 5.482 3.04 6.262 4.791.637 1.432.574 2.899-.028 4.37-.628 1.535-1.863 3.109-4.315 4.751-1.257.842-2.65 1.51-3.923 2.006-1.288.503-2.587.814-3.892 1.187-2.548.728-5.155 1.263-7.766 1.797C30.576 54.587 22.89 56.327 15 60z" clip-rule="evenodd" opacity=".09" fill-rule="evenodd"/><g transform="translate(14.836 1.238) scale(.24004)" clip-rule="evenodd" fill-rule="evenodd"><path stroke-miterlimit="10" d="M.837 242.735c-4.326-21.237-11.954-38.909-21.192-55.288-6.853-12.15-14.79-23.364-22.137-35.145-2.452-3.933-4.568-8.088-6.924-12.17-4.71-8.162-8.53-17.625-8.288-29.9.238-11.993 3.706-21.614 8.708-29.48 8.227-12.937 22.007-23.545 40.497-26.332 15.117-2.28 29.29 1.571 39.341 7.448 8.214 4.803 14.574 11.219 19.41 18.78 5.045 7.89 8.52 17.214 8.811 29.374.15 6.23-.87 12-2.308 16.786-1.454 4.844-3.793 8.894-5.875 13.219-4.062 8.443-9.156 16.179-14.268 23.92C21.387 187.002 7.096 210.516.838 242.735z" fill="#e81e25" stroke="#000" stroke-width="4.129"/><circle cx=".681" cy="110.096" r="20.459"/></g></svg>
