<svg xmlns="http://www.w3.org/2000/svg" width="595.28" height="841.89" viewBox="0 0 595.28 841.89"><path fill="none" stroke="#010202" stroke-width="10" d="M105.762 293.561h384.477c11.931 0 21.6 9.67 21.6 21.6v211.678c0 11.931-9.669 21.6-21.6 21.6H105.762c-11.93 0-21.6-9.669-21.6-21.6V315.161c0-11.93 9.67-21.6 21.6-21.6z"/><path fill="#010202" d="M138.162 494.439V347.561h43.199l43.2 54 43.2-54h43.2V494.44h-43.2V410.2l-43.2 53.999-43.2-53.999v84.239h-43.199zM408.159 494.439l-64.8-71.279h43.2v-75.6h43.199v75.6h43.199l-64.798 71.279z"/></svg>
